<svg width="38" height="38" viewBox="0 0 38 38" fill="none" xmlns="http://www.w3.org/2000/svg">
<g clip-path="url(#clip0_14_489)">
<path d="M19 0C8.5068 0 0 8.5068 0 19C0 29.4932 8.5068 38 19 38C29.4932 38 38 29.4932 38 19C38 8.5068 29.4932 0 19 0ZM19 34.8333C10.2557 34.8333 3.16669 27.7443 3.16669 19C3.16669 10.2557 10.2557 3.16669 19 3.16669C27.7443 3.16669 34.8333 10.2557 34.8333 19C34.8333 27.7443 27.7443 34.8333 19 34.8333Z" fill="white"/>
<path d="M16.9529 9.96374C16.3346 9.34542 15.332 9.34542 14.7137 9.96374C14.0954 10.5821 14.0954 11.5846 14.7137 12.2029L21.5108 19L14.7137 25.7971C14.0954 26.4154 14.0954 27.418 14.7137 28.0363C15.332 28.6546 16.3346 28.6546 16.9529 28.0363L24.8696 20.1196C25.4879 19.5013 25.4879 18.4987 24.8696 17.8804L16.9529 9.96374Z" fill="white"/>
</g>
<defs>
<clipPath id="clip0_14_489">
<rect width="38" height="38" fill="white"/>
</clipPath>
</defs>
</svg>
