<svg width="38" height="38" viewBox="0 0 38 38" fill="none" xmlns="http://www.w3.org/2000/svg">
<g clip-path="url(#clip0_14_485)">
<path d="M19 0C29.4932 0 38 8.5068 38 19C38 29.4932 29.4932 38 19 38C8.5068 38 0 29.4932 0 19C0 8.5068 8.5068 0 19 0ZM19 34.8333C27.7443 34.8333 34.8333 27.7443 34.8333 19C34.8333 10.2557 27.7443 3.16669 19 3.16669C10.2557 3.16669 3.16669 10.2557 3.16669 19C3.16669 27.7443 10.2557 34.8333 19 34.8333Z" fill="white"/>
<path d="M21.0471 9.96374C21.6654 9.34542 22.668 9.34542 23.2863 9.96374C23.9046 10.5821 23.9046 11.5846 23.2863 12.2029L16.4892 19L23.2863 25.7971C23.9046 26.4154 23.9046 27.418 23.2863 28.0363C22.668 28.6546 21.6654 28.6546 21.0471 28.0363L13.1304 20.1196C12.5121 19.5013 12.5121 18.4987 13.1304 17.8804L21.0471 9.96374Z" fill="white"/>
</g>
<defs>
<clipPath id="clip0_14_485">
<rect width="38" height="38" fill="white" transform="matrix(-1 0 0 1 38 0)"/>
</clipPath>
</defs>
</svg>
