<svg width="15" height="15" viewBox="0 0 15 15" fill="none" xmlns="http://www.w3.org/2000/svg">
<path d="M7.5 14.5L6.73125 13.7933C5.40625 12.5582 4.3125 11.4918 3.45 10.5941C2.5875 9.69645 1.9 8.89427 1.3875 8.18759C0.875 7.4809 0.515625 6.84106 0.309375 6.26808C0.103125 5.69509 0 5.11573 0 4.53001C0 3.38404 0.378125 2.42588 1.13438 1.65553C1.89063 0.885175 2.825 0.5 3.9375 0.5C4.65 0.5 5.30938 0.671896 5.91563 1.01569C6.52188 1.35948 7.05 1.85607 7.5 2.50546C8.025 1.81787 8.58125 1.31173 9.16875 0.98704C9.75625 0.662347 10.3875 0.5 11.0625 0.5C12.175 0.5 13.1094 0.885175 13.8656 1.65553C14.6219 2.42588 15 3.38404 15 4.53001C15 5.11573 14.8969 5.69509 14.6906 6.26808C14.4844 6.84106 14.125 7.4809 13.6125 8.18759C13.1 8.89427 12.4125 9.69645 11.55 10.5941C10.6875 11.4918 9.59375 12.5582 8.26875 13.7933L7.5 14.5Z" fill="url(#paint0_linear_474_39)"/>
<defs>
<linearGradient id="paint0_linear_474_39" x1="7.5" y1="0.5" x2="7.5" y2="14.5" gradientUnits="userSpaceOnUse">
<stop stop-color="#4D3DFF"/>
<stop offset="1" stop-color="#9E2FA0"/>
</linearGradient>
</defs>
</svg>
