<svg width="24" height="24" viewBox="0 0 24 24" fill="none" xmlns="http://www.w3.org/2000/svg">
<path fill-rule="evenodd" clip-rule="evenodd" d="M20.4 18C20.4 17.6818 20.2736 17.3766 20.0486 17.1515C19.8235 16.9265 19.5183 16.8 19.2 16.8H4.80002C4.48176 16.8 4.17654 16.9265 3.95149 17.1515C3.72645 17.3766 3.60002 17.6818 3.60002 18C3.60002 18.3183 3.72645 18.6235 3.95149 18.8486C4.17654 19.0736 4.48176 19.2 4.80002 19.2H19.2C19.5183 19.2 19.8235 19.0736 20.0486 18.8486C20.2736 18.6235 20.4 18.3183 20.4 18ZM20.4 6.00005C20.4 5.68179 20.2736 5.37656 20.0486 5.15152C19.8235 4.92648 19.5183 4.80005 19.2 4.80005H4.80002C4.48176 4.80005 4.17654 4.92648 3.95149 5.15152C3.72645 5.37656 3.60002 5.68179 3.60002 6.00005C3.60002 6.31831 3.72645 6.62353 3.95149 6.84858C4.17654 7.07362 4.48176 7.20005 4.80002 7.20005H19.2C19.5183 7.20005 19.8235 7.07362 20.0486 6.84858C20.2736 6.62353 20.4 6.31831 20.4 6.00005ZM20.4 12C20.4 11.6818 20.2736 11.3766 20.0486 11.1515C19.8235 10.9265 19.5183 10.8 19.2 10.8H12C11.6818 10.8 11.3765 10.9265 11.1515 11.1515C10.9265 11.3766 10.8 11.6818 10.8 12C10.8 12.3183 10.9265 12.6235 11.1515 12.8486C11.3765 13.0736 11.6818 13.2 12 13.2H19.2C19.5183 13.2 19.8235 13.0736 20.0486 12.8486C20.2736 12.6235 20.4 12.3183 20.4 12Z" fill="white"/>
</svg>
